<?xml version="1.0" encoding="UTF-8"?>
<svg xmlns="http://www.w3.org/2000/svg" xmlns:xlink="http://www.w3.org/1999/xlink" width="24pt" height="24pt" viewBox="0 0 24 24" version="1.1">
<g id="surface1">
<path style=" stroke:none;fill-rule:evenodd;fill:rgb(100%,100%,100%);fill-opacity:1;" d="M 1.683594 1.683594 C 0 3.367188 0 6.078125 0 11.5 L 0 12.5 C 0 17.921875 0 20.632812 1.683594 22.316406 C 3.367188 24 6.078125 24 11.5 24 L 12.5 24 C 17.921875 24 20.632812 24 22.316406 22.316406 C 24 20.632812 24 17.921875 24 12.5 L 24 11.5 C 24 6.078125 24 3.367188 22.316406 1.683594 C 20.632812 0 17.921875 0 12.5 0 L 11.5 0 C 6.078125 0 3.367188 0 1.683594 1.683594 Z M 4.75 7.5 L 6.5 7.5 C 6.949219 7.5 7.117188 7.695312 7.285156 8.179688 C 8.140625 10.671875 9.582031 12.851562 10.175781 12.851562 C 10.398438 12.851562 10.5 12.75 10.5 12.183594 L 10.5 9.609375 C 10.460938 8.875 10.203125 8.558594 10.015625 8.320312 C 9.898438 8.175781 9.804688 8.0625 9.804688 7.902344 C 9.804688 7.707031 9.972656 7.5 10.25 7.5 L 13 7.5 C 13.371094 7.5 13.503906 7.699219 13.503906 8.144531 L 13.503906 11.609375 C 13.503906 11.980469 13.664062 12.109375 13.773438 12.109375 C 13.996094 12.109375 14.183594 11.980469 14.589844 11.574219 C 15.851562 10.164062 16.742188 7.996094 16.742188 7.996094 C 16.851562 7.734375 17.058594 7.5 17.503906 7.5 L 19.253906 7.5 C 19.78125 7.5 19.894531 7.773438 19.78125 8.144531 C 19.558594 9.164062 17.425781 12.167969 17.425781 12.167969 C 17.242188 12.464844 17.167969 12.613281 17.425781 12.945312 C 17.519531 13.074219 17.714844 13.265625 17.9375 13.484375 C 18.167969 13.707031 18.425781 13.960938 18.632812 14.207031 C 19.386719 15.050781 19.953125 15.765625 20.109375 16.257812 C 20.253906 16.75 20.003906 17 19.503906 17 L 17.753906 17 C 17.285156 17 17.046875 16.738281 16.539062 16.171875 C 16.320312 15.929688 16.054688 15.632812 15.703125 15.28125 C 14.664062 14.28125 14.21875 14.148438 13.960938 14.148438 C 13.609375 14.148438 13.503906 14.25 13.503906 14.75 L 13.503906 16.320312 C 13.503906 16.75 13.363281 17 12.25 17 C 10.398438 17 8.359375 15.875 6.914062 13.796875 C 4.742188 10.757812 4.148438 8.457031 4.148438 7.996094 C 4.148438 7.734375 4.25 7.5 4.75 7.5 Z M 4.75 7.5 "/>
</g>
</svg>
